<?xml version="1.0" standalone="no"?>
<!DOCTYPE svg PUBLIC "-//W3C//DTD SVG 20010904//EN"
 "http://www.w3.org/TR/2001/REC-SVG-20010904/DTD/svg10.dtd">
<svg version="1.0" xmlns="http://www.w3.org/2000/svg"
 width="2400.000000pt" height="1600.000000pt" viewBox="0 0 2400.000000 1600.000000"
 preserveAspectRatio="xMidYMid meet">

<g transform="translate(0.000000,1600.000000) scale(0.100000,-0.100000)"
fill="#000000" stroke="none">
<path d="M0 8000 l0 -8000 699 0 700 0 -16 46 c-31 91 -4 184 105 357 108 169
119 184 197 245 44 35 116 96 159 136 44 39 90 78 103 87 13 9 118 108 233
222 124 123 254 241 322 291 62 47 147 111 188 143 104 81 226 162 267 179 73
31 139 37 478 44 193 5 380 12 417 18 58 8 153 45 243 94 11 6 54 29 95 51 41
22 96 55 121 73 25 18 110 66 190 106 79 41 169 90 199 111 30 20 80 45 111
56 81 27 225 99 296 147 33 23 85 51 115 62 29 11 89 38 134 60 44 22 110 49
145 60 35 11 134 50 219 87 85 37 177 75 203 85 27 11 54 23 61 29 7 6 71 40
143 75 154 77 240 145 279 224 42 84 108 128 265 176 48 14 154 58 235 97 82
39 178 77 213 85 35 8 91 29 124 46 79 39 231 98 255 98 10 0 60 20 111 45 51
25 123 53 159 61 85 21 296 132 477 250 61 40 116 68 260 131 l110 48 195 3
195 3 -3 325 c-3 344 3 417 49 542 23 64 23 83 3 161 -14 56 -14 66 2 118 9
32 15 76 13 98 -4 37 -6 898 -3 975 1 19 0 1270 -3 2780 -4 2807 -5 2783 32
2990 17 96 42 260 50 330 4 30 12 71 18 90 9 26 13 446 17 1585 l5 1550 27 55
c14 30 31 79 37 108 14 65 25 88 64 130 l31 32 -4672 0 -4672 0 0 -8000z"/>
<path d="M9888 15970 c51 -37 87 -90 102 -150 7 -30 10 -156 8 -375 -3 -307
-5 -335 -25 -395 -11 -36 -32 -105 -44 -155 -23 -87 -24 -107 -30 -685 -5
-547 -7 -601 -25 -670 -18 -67 -19 -81 -7 -132 18 -79 12 -2955 -6 -3063 -7
-38 -15 -122 -19 -185 -6 -97 -5 -121 9 -155 9 -22 20 -60 24 -85 5 -30 18
-57 40 -81 53 -59 60 -94 58 -274 -3 -323 -22 -842 -32 -905 -6 -36 -15 -96
-20 -135 -11 -91 -79 -402 -93 -428 -6 -12 -8 -49 -6 -87 4 -55 12 -78 41
-126 20 -33 41 -79 46 -104 6 -27 11 -245 11 -550 0 -473 -2 -511 -21 -600
-34 -157 -34 -164 -8 -222 l24 -53 3 -460 c2 -406 1 -466 -14 -515 -11 -36
-20 -118 -25 -240 -5 -102 -13 -250 -19 -330 -5 -80 -14 -235 -20 -345 -5
-110 -12 -215 -16 -232 -7 -38 -9 -38 88 -19 176 35 236 38 918 33 617 -4 869
-13 898 -31 6 -3 53 -15 104 -26 95 -21 194 -61 250 -103 18 -13 68 -43 111
-66 77 -42 82 -43 355 -84 l277 -42 380 1 c209 1 499 7 645 14 146 6 459 16
695 21 1009 20 1144 25 1230 46 177 44 339 137 421 240 21 26 63 75 94 109 78
86 118 139 130 169 6 16 10 156 10 344 0 262 3 326 16 367 8 27 19 108 24 179
36 526 59 719 90 773 21 35 21 37 5 89 -14 44 -16 75 -11 161 4 59 10 170 14
247 7 128 10 145 35 187 15 26 32 50 37 53 16 10 12 126 -6 181 -32 100 -38
268 -38 1069 l-1 790 28 48 c16 26 47 61 69 77 l41 30 -2 152 c-1 84 -5 157
-9 163 -4 5 -10 132 -15 280 -4 149 -10 355 -13 459 -4 151 -3 197 9 235 12
37 13 59 5 116 -22 142 -39 4582 -20 5035 12 304 32 379 115 445 l32 25 -3494
0 -3494 0 41 -30z"/>
<path d="M18546 15953 c13 -25 24 -55 24 -66 0 -10 16 -38 35 -61 19 -23 45
-65 57 -92 22 -47 23 -60 26 -383 3 -302 1 -342 -17 -425 -22 -102 -33 -166
-57 -341 -9 -66 -21 -147 -26 -180 -13 -88 -24 -731 -16 -945 4 -102 12 -345
17 -540 6 -195 15 -395 21 -445 7 -51 14 -352 18 -690 l7 -600 24 -45 c30 -56
36 -135 22 -260 -11 -101 -5 -189 26 -350 32 -166 35 -235 44 -1130 5 -498 11
-1164 14 -1480 4 -397 3 -588 -5 -618 -10 -42 -10 -44 28 -87 21 -24 44 -61
50 -83 19 -63 16 -365 -4 -432 -12 -38 -19 -117 -25 -250 -4 -107 -10 -211
-14 -230 -5 -29 0 -48 28 -102 47 -90 75 -177 87 -271 5 -42 16 -104 25 -136
8 -32 15 -94 15 -137 0 -48 7 -103 20 -143 51 -175 63 -294 79 -846 9 -306 12
-332 51 -420 12 -27 31 -68 41 -90 9 -23 21 -54 25 -70 10 -44 71 -143 124
-202 27 -29 59 -81 76 -120 16 -37 45 -94 66 -126 20 -32 44 -82 54 -110 9
-29 27 -72 40 -98 12 -25 29 -71 37 -103 12 -46 27 -69 71 -115 30 -32 68 -79
84 -104 16 -26 52 -67 81 -93 62 -56 126 -160 143 -232 11 -49 17 -57 66 -90
30 -21 84 -54 120 -74 93 -54 184 -138 238 -221 57 -86 218 -250 292 -297 47
-30 136 -71 297 -136 114 -46 147 -65 228 -126 44 -33 112 -73 150 -89 39 -15
87 -42 108 -59 21 -16 41 -30 44 -30 3 0 25 -9 48 -19 23 -11 77 -35 120 -55
44 -20 111 -45 150 -57 40 -12 105 -36 145 -55 77 -36 181 -64 236 -64 18 0
57 -7 86 -16 68 -20 183 -34 370 -43 95 -5 160 -13 189 -24 24 -9 56 -17 70
-17 15 0 70 -9 121 -20 112 -24 296 -109 358 -164 60 -54 174 -209 216 -294
20 -39 51 -96 70 -125 18 -28 48 -81 67 -117 33 -63 34 -69 33 -180 0 -113
-16 -278 -29 -312 -7 -17 3 -18 129 -18 l136 0 0 8000 0 8000 -2739 0 -2738 0
23 -47z"/>
<path d="M12315 3419 l-40 -41 49 31 c28 17 57 31 65 32 12 0 10 3 -4 9 -29
13 -28 13 -70 -31z"/>
<path d="M16680 3330 c0 -5 9 -10 20 -10 11 0 20 5 20 10 0 6 -9 10 -20 10
-11 0 -20 -4 -20 -10z"/>
<path d="M16530 2815 c33 -19 46 -19 30 0 -7 8 -22 15 -34 15 -20 -1 -20 -2 4
-15z"/>
<path d="M5990 878 c14 -6 54 -27 90 -45 58 -31 62 -31 35 -9 -16 15 -54 35
-83 46 -56 21 -84 26 -42 8z"/>
<path d="M3020 780 c0 -5 5 -10 10 -10 6 0 10 5 10 10 0 6 -4 10 -10 10 -5 0
-10 -4 -10 -10z"/>
<path d="M19759 25 c-4 -3 -33 -9 -65 -14 -34 -5 686 -8 1706 -7 1754 1 1759
1 720 8 -575 4 -1340 10 -1700 13 -361 3 -658 3 -661 0z"/>
</g>
</svg>
