<?xml version="1.0" standalone="no"?>
<!DOCTYPE svg PUBLIC "-//W3C//DTD SVG 20010904//EN"
 "http://www.w3.org/TR/2001/REC-SVG-20010904/DTD/svg10.dtd">
<svg version="1.0" xmlns="http://www.w3.org/2000/svg"
 width="2400.000000pt" height="1600.000000pt" viewBox="0 0 2400.000000 1600.000000"
 preserveAspectRatio="xMidYMid meet">

<g transform="translate(0.000000,1600.000000) scale(0.100000,-0.100000)"
fill="#000000" stroke="none">
<path d="M0 8000 l0 -8000 696 0 c659 0 696 1 689 17 -20 49 -27 92 -22 134 6
51 53 152 109 235 19 28 38 59 41 68 15 39 90 137 128 168 23 18 88 74 146
123 57 50 127 109 156 132 29 23 131 119 227 215 199 196 279 267 365 325 33
22 69 50 79 62 11 12 36 31 55 43 20 12 53 37 74 55 20 18 41 33 46 33 4 0 26
14 47 31 54 43 140 85 205 100 32 7 196 15 404 20 193 4 379 11 415 16 56 8
170 52 245 95 11 6 56 32 100 56 44 25 94 56 110 70 17 14 95 56 175 95 80 38
168 87 195 108 28 21 84 50 125 64 99 36 234 101 270 131 33 29 373 189 421
199 19 4 57 18 84 31 28 12 84 36 125 52 41 16 105 44 141 61 36 17 72 31 78
31 7 0 25 9 40 19 15 11 83 46 152 79 88 41 138 72 171 104 26 26 56 49 67 53
11 3 22 19 26 35 10 44 60 108 112 140 25 16 91 43 147 61 92 29 280 106 316
129 49 32 93 50 150 60 36 7 90 26 120 42 76 40 215 95 275 108 28 6 79 27
114 46 35 19 98 43 140 53 64 15 224 90 301 141 8 6 37 22 64 38 27 15 76 45
110 68 34 23 134 74 221 115 l160 74 425 6 c296 4 437 9 465 18 22 7 90 16
150 21 61 4 148 18 195 29 177 44 214 46 935 45 677 0 883 -7 950 -34 17 -6
64 -18 105 -27 80 -16 211 -71 245 -103 11 -10 43 -29 70 -41 28 -12 63 -31
78 -41 26 -19 110 -35 352 -68 39 -6 106 -16 150 -22 105 -16 781 -15 1125 1
140 7 453 17 695 22 1041 21 1134 24 1225 46 161 38 329 133 407 230 21 27 61
71 88 98 28 28 71 77 95 109 l45 59 5 351 c5 287 9 359 22 396 9 25 19 97 23
160 27 465 53 699 85 765 20 42 20 45 5 100 -13 43 -15 79 -11 148 3 51 10
157 14 237 9 153 17 183 60 240 24 31 26 42 24 100 -2 36 -10 85 -19 110 -29
87 -36 268 -40 1029 -4 866 -6 837 70 915 23 24 49 47 57 52 13 8 14 33 7 184
-4 96 -12 292 -17 435 -5 143 -12 339 -16 437 -5 144 -3 186 10 230 13 44 13
66 4 128 -22 147 -40 4566 -20 5025 12 301 33 382 113 450 l31 25 -8411 0
-8411 0 0 -8000z"/>
<path d="M18548 15963 c11 -21 22 -51 26 -67 4 -15 25 -52 48 -82 71 -94 78
-140 78 -490 0 -288 -1 -306 -26 -415 -14 -63 -30 -150 -35 -194 -9 -83 -23
-181 -40 -300 -15 -98 -25 -731 -16 -965 4 -107 11 -352 17 -545 5 -192 14
-390 20 -440 7 -51 15 -347 18 -690 l7 -600 25 -45 c21 -38 25 -57 24 -125 -1
-44 -5 -115 -9 -159 -8 -82 2 -184 32 -326 31 -145 35 -263 44 -1165 5 -500
12 -1153 15 -1450 4 -392 2 -555 -6 -594 -12 -52 -11 -54 18 -85 61 -64 67
-85 70 -273 3 -149 1 -181 -17 -247 -17 -63 -21 -105 -21 -238 0 -89 -5 -188
-12 -220 -13 -64 -20 -41 66 -234 28 -63 38 -103 46 -175 5 -52 16 -112 24
-134 9 -24 15 -76 16 -130 0 -64 6 -107 20 -148 11 -31 20 -71 20 -89 1 -18 8
-62 16 -98 19 -83 33 -296 43 -670 4 -162 13 -311 18 -330 6 -19 27 -71 48
-115 20 -44 43 -101 51 -127 19 -62 46 -105 115 -183 37 -42 66 -88 83 -132
15 -37 40 -86 55 -108 29 -42 71 -129 71 -149 0 -6 14 -40 30 -75 17 -35 36
-84 42 -110 8 -34 28 -64 76 -116 35 -38 72 -86 83 -107 10 -20 28 -42 39 -48
26 -14 122 -135 148 -186 12 -23 26 -62 33 -87 9 -39 18 -51 53 -71 24 -14 49
-32 56 -41 8 -10 37 -27 65 -40 74 -32 183 -130 240 -216 60 -89 166 -203 256
-275 66 -52 196 -115 363 -175 82 -29 131 -57 206 -119 50 -42 77 -57 167 -95
34 -15 72 -38 84 -51 12 -13 28 -24 35 -24 7 0 71 -27 141 -61 70 -33 151 -65
178 -71 28 -5 88 -28 134 -49 88 -41 188 -69 245 -69 18 0 55 -7 82 -16 59
-19 167 -31 374 -42 114 -6 163 -13 187 -25 18 -9 47 -17 65 -17 81 0 234 -42
338 -93 174 -85 168 -79 303 -266 26 -36 65 -102 87 -146 22 -44 62 -116 90
-160 28 -44 57 -102 65 -129 17 -58 20 -184 4 -239 -6 -21 -12 -64 -13 -95 -1
-31 -6 -69 -10 -84 l-8 -28 131 0 131 0 0 8000 0 8000 -2735 0 -2735 0 18 -37z"/>
</g>
</svg>
